# xmcd
#
# Track frame offsets: 
#        150
#        10954
#        20964
#        32034
#        45686
#        61563
#        72617
#        86107
#        96633
#        116616
#        130024
#        141325
#        155736
#        165298
#        179150
#        194711
#        205516
#        216729
#        234440
#        242446
#        255426
#        267078
#        279716
#        292557
#        305246
#        316495
#        328942
#        342585
#
# Disc length: 4778 seconds
#
# Revision: 0
# Processed by: cddbd v1.5.2PL0 Copyright (c) Steve Scherf et al.
# Submitted via: ExactAudioCopyFreeDBPlugin 1.0
#
DISCID=b712a81c
DTITLE=Better Off Dead - Girls, Guns and Money
DYEAR=2010
DGENRE=Blues
TTITLE0=Twister In A Trailer Park
TTITLE1=Bad Credit
TTITLE2=Heart Be the Judge
TTITLE3=Louisiana Hot Sauce
TTITLE4=Yellow Cadillac
TTITLE5=Chicken Pickin' Good Time
TTITLE6=500 Miles
TTITLE7=Kaboodle Cock-A-Lulu
TTITLE8=Mind To Leave You
TTITLE9=Back To Memphis
TTITLE10=Kitten
TTITLE11=San Antone
TTITLE12=What Happened
TTITLE13=If I Can Quit Drinkin'
TTITLE14=One More Time
TTITLE15=Porn Star
TTITLE16=Little Debbie
TTITLE17=Never Let You Down
TTITLE18=Rockin' Daddy
TTITLE19=When My Troubles Began
TTITLE20=Georgia Peach
TTITLE21=She Got It
TTITLE22=God Will
TTITLE23=I Ain't Gonna Change
TTITLE24=Let's Fool Around
TTITLE25=I Won't Do It
TTITLE26=Off The Wagon
TTITLE27=From A Broken Home
EXTD=
EXTT0=
EXTT1=
EXTT2=
EXTT3=
EXTT4=
EXTT5=
EXTT6=
EXTT7=
EXTT8=
EXTT9=
EXTT10=
EXTT11=
EXTT12=
EXTT13=
EXTT14=
EXTT15=
EXTT16=
EXTT17=
EXTT18=
EXTT19=
EXTT20=
EXTT21=
EXTT22=
EXTT23=
EXTT24=
EXTT25=
EXTT26=
EXTT27=
PLAYORDER=
